# xmcd CD database file
#
# Track frame offsets:
#	150
#	15136
#	37732
#	71173
#	108865
#	130667
#	151392
#	152928
#	171889
#	201226
#	222421
#	235816
#	243834
#	257997
#	281281
#	308139
#
# Disc length: 4396 seconds
#
# Revision: 0
# Processed by: cddbd v1.5.2PL0 Copyright (c) Steve Scherf et al.
# Submitted via: Feurio! 1.66 - http://www.feurio.com
#
DISCID=d1112a10
DTITLE=Luther Allison - Just Memories
DYEAR=1900
DGENRE=
TTITLE0=Too Many Women/A Change Must Come
TTITLE1=I Think I Need Some Help
TTITLE2=Just Memories
TTITLE3=Serious
TTITLE4=Freedom
TTITLE5=Hand Me Down My Moonshine
TTITLE6=#1
TTITLE7=Things I Used To Do
TTITLE8=#2
TTITLE9=Nobody But You
TTITLE10=(One More River To Cross)
TTITLE11=#3
TTITLE12=Soul Fixing Man
TTITLE13=Sweet Home Chicago Montreux
TTITLE14=Luther+Bernard Allison - Meet Me In My Home Town
TTITLE15=Bernard Allison - Don't Be Confused (acoustic)
EXTD=
EXTT0=
EXTT1=
EXTT2=
EXTT3=
EXTT4=
EXTT5=
EXTT6=
EXTT7=
EXTT8=
EXTT9=
EXTT10=
EXTT11=
EXTT12=
EXTT13=
EXTT14=
EXTT15=
PLAYORDER=
